<?xml version="1.0" ?><svg id="Icons_Crawl" overflow="hidden" version="1.1" viewBox="0 0 96 96" xmlns="http://www.w3.org/2000/svg" xmlns:xlink="http://www.w3.org/1999/xlink"><g><circle cx="81.5" cy="28.3" r="8"/><path d=" M 64.9 29.5 L 64.9 29.5 C 50.6 25.5 37.3 31.9 30.6 35.3 L 30.6 35.3 C 27.6 36.8 25.5 39.8 25.5 43.4 L 25.5 60.2 L 8.8 68.1 C 6.8 69 6 71.4 6.9 73.4 C 7.6 74.8 9 75.7 10.5 75.7 C 11.1 75.7 11.7 75.6 12.2 75.3 L 31.2 66.3 C 32.6 65.6 33.5 64.2 33.5 62.7 L 33.5 48.1 L 44.3 55.9 L 37 69.8 C 36 71.8 36.7 74.2 38.7 75.2 C 39.3 75.5 39.9 75.7 40.6 75.7 C 42 75.7 43.4 74.9 44.1 73.6 L 53.1 56.6 C 54 54.8 53.5 52.6 51.9 51.5 L 43.9 45.8 L 63.6 45.8 L 63.6 71.8 C 63.6 74 65.4 75.8 67.6 75.8 C 69.8 75.8 71.6 74 71.6 71.8 L 71.6 37.3 C 71.5 33.4 68.6 30.1 64.9 29.5 Z"/></g></svg>